<svg width="278" height="150" viewBox="0 0 278 150" fill="none" xmlns="http://www.w3.org/2000/svg">
<path d="M120.383 17.1942L100.383 2.19416C111.507 -0.34568 117.316 0.947177 126.883 8.19416" stroke="#34D399" stroke-width="2"/>
<path d="M131.283 25.1449L151.475 39.8854C150.651 28.5043 147.717 23.3275 137.989 16.2975" stroke="#34D399" stroke-width="2"/>
<path d="M152.5 65H146.5V67.5H151.5V81.5H152.5M152.5 65V61.5H154.5V65M152.5 65H154.5M154.5 65H160V67.5H155V81.5H154M152.5 81.5V84.5H154V81.5M152.5 81.5H154" stroke="#34D399"/>
<path d="M145.5 43.5L136.5 41V43.5L145 46L145.5 43.5Z" stroke="#34D399"/>
<path d="M159 36.5H156.5L159 27H161.5L159 36.5Z" stroke="#34D399"/>
<path d="M172 33L158 43.5L160 45.5L173.5 35.5L172 33Z" stroke="#34D399"/>
<circle cx="153" cy="73" r="17.5" stroke="#34D399"/>
<circle cx="153" cy="73" r="24" stroke="#34D399" stroke-width="2"/>
<rect x="84.3968" y="70.7549" width="62.4662" height="8.35417" transform="rotate(-54 84.3968 70.7549)" stroke="#34D399" stroke-width="2"/>
<rect x="120.437" y="18.45" width="12.6931" height="12.0404" transform="rotate(-54 120.437 18.45)" stroke="#34D399" stroke-width="2"/>
<path d="M2.98023e-08 121.04H27.96V126.04H16.48V149.04H11.48V126.04H2.98023e-08V121.04ZM48.5025 144L51.0625 149H45.4625L42.9025 144L36.7825 132L30.6625 144L28.1025 149H22.5025L25.0625 144L36.7825 121L48.5025 144ZM76.4766 123.2L76.5166 123.28C77.8766 124.64 78.7166 126.52 78.7166 128.6C78.7166 131.64 76.9166 134.28 74.3166 135.48C73.6366 135.8 72.9166 136 72.1566 136.08C72.0766 136.08 71.9966 136.08 71.9166 136.08V136.12H58.5166V149H53.5166V121H71.1566C73.2366 121 75.1166 121.84 76.4766 123.2ZM72.2366 130.96V130.92C73.1566 130.52 73.7566 129.6 73.7566 128.6C73.7566 127.68 73.2766 127.04 72.9966 126.76C72.6766 126.44 72.0766 126.04 71.1966 126.04H58.5166V131.2H71.1966C71.5566 131.2 71.9166 131.12 72.2366 130.96ZM137.308 121L130.748 142.96L128.948 149L125.268 143.88L119.708 136.24L114.188 143.88L110.508 148.96L108.708 142.96L102.188 121H107.388L112.428 137.88L116.668 132L117.468 130.88L119.748 127.76L122.028 130.88L122.828 132L127.068 137.88L132.108 121H137.308ZM159.128 144L161.688 149H156.088L153.528 144L147.408 132L141.288 144L138.728 149H133.128L135.688 144L147.408 121L159.128 144ZM171.447 144L186.127 144.04V149.04H171.927C170.527 149.04 169.207 148.72 168.007 148.12C166.247 147.24 164.807 145.8 163.967 144.04C163.367 142.84 163.047 141.52 163.047 140.12V121.04H168.047V140.6C168.287 142.36 169.687 143.76 171.447 144ZM198.517 144L213.197 144.04V149.04H198.997C197.597 149.04 196.277 148.72 195.077 148.12C193.317 147.24 191.877 145.8 191.037 144.04C190.437 142.84 190.117 141.52 190.117 140.12V121.04H195.117V140.6C195.357 142.36 196.757 143.76 198.517 144ZM224.748 126C223.348 126 222.188 127.16 222.188 128.56V131.16H240.188V136.16H222.188V141.44C222.188 142.84 223.348 144 224.748 144H245.188V149H224.748C220.588 149 217.228 145.6 217.228 141.44V128.56C217.228 124.4 220.588 121 224.748 121H245.188V126H224.748ZM249.18 121.04H277.14V126.04H265.66V149.04H260.66V126.04H249.18V121.04Z" fill="#34D399"/>
</svg>