<svg width="24" height="24" viewBox="0 0 24 24" fill="none" xmlns="http://www.w3.org/2000/svg">
<rect width="24" height="24" rx="4" fill="#FFCD11"/>
<path d="M18.3908 8.89299L18.417 8.88223C18.495 8.84976 18.5523 8.83203 18.5974 8.82645L18.647 8.81828C18.7486 8.79797 18.8534 8.78781 18.9583 8.78781C19.5889 8.78781 20.1156 8.59676 20.4813 8.23539C20.7444 7.97522 20.91 7.63756 20.9679 7.24671L21 7.24711V5H17.1482V6.62576C17.1388 6.7429 17.1396 6.85067 17.1404 6.9461C17.1412 7.05088 17.1419 7.14989 17.1289 7.22499L17.1252 7.2489C17.0817 7.56644 16.9238 7.86127 16.6808 8.07901C16.432 8.30213 16.3155 8.35114 16.2771 8.36169C16.2385 8.37245 16.1824 8.36747 16.0203 8.34615C15.8805 8.32782 15.6889 8.30273 15.4552 8.30273C14.457 8.30273 13.6204 9.03543 13.509 10.0078C13.4842 10.2289 13.4982 10.3942 13.5084 10.5148C13.5198 10.6488 13.5232 10.6893 13.4755 10.8227C13.3808 11.0851 13.1792 11.3286 12.908 11.508C12.6368 11.6875 12.3245 11.7866 12.0291 11.7866L12.0002 11.7862L11.9713 11.7866C11.6759 11.7866 11.3637 11.6877 11.0924 11.508C10.821 11.3286 10.6194 11.0851 10.5251 10.8234C10.4772 10.6893 10.4804 10.6486 10.492 10.5144C10.5022 10.3938 10.5162 10.2287 10.4914 10.007C10.3803 9.03523 9.54359 8.30253 8.54538 8.30253C8.31169 8.30253 8.12011 8.32763 7.9793 8.34615C7.81839 8.36727 7.7621 8.37225 7.7235 8.36149C7.6851 8.35074 7.56868 8.30193 7.31979 8.07861C7.07678 7.86108 6.91911 7.56624 6.87543 7.2487L6.87178 7.22479C6.86548 7.18834 6.86243 7.1463 6.86101 7.10068V5H3.00833V6.90466C3.00386 7.44114 3.18043 7.90132 3.51851 8.23559C3.88403 8.59696 4.41067 8.78781 5.04134 8.78781C5.14618 8.78781 5.25082 8.79816 5.35281 8.81849L5.40219 8.82645C5.44709 8.83223 5.50438 8.84996 5.58301 8.88243L5.60882 8.89299C5.8699 8.99419 6.09868 9.16372 6.27037 9.38345C6.69297 9.92371 6.6942 10.6797 6.27362 11.2216C6.13586 11.3992 5.95666 11.5475 5.75571 11.6505L5.73763 11.6601C5.68257 11.6895 5.6334 11.7114 5.58829 11.7268C5.56818 11.7336 5.55009 11.7391 5.53323 11.7439L5.51413 11.7495C5.36216 11.7973 5.20307 11.8214 5.04154 11.8214C3.82044 11.8214 3 12.5577 3 13.6535C3 14.5089 3.39782 14.9528 3.73144 15.1745C4.13861 15.4451 4.6297 15.5217 5.09986 15.564L5.13236 15.5676C5.25711 15.5835 5.36236 15.6086 5.48325 15.6512L5.54156 15.673L5.55152 15.6765C5.86807 15.7825 6.13322 15.9991 6.29841 16.2865C6.39166 16.4489 6.45628 16.6615 6.48025 16.8847C6.4896 16.9726 6.49589 17.0577 6.50199 17.1418C6.50666 17.2057 6.51195 17.2774 6.51906 17.3495V18.9994H10.3709V16.7963L10.3437 16.7959C10.2803 16.3722 10.0751 15.9841 9.75042 15.6827C9.72176 15.6564 9.69538 15.6341 9.67424 15.6163L9.66119 15.6054C9.24671 15.2532 8.70771 15.2439 8.31396 15.2369H8.30965C8.24384 15.2357 8.18147 15.2345 8.1264 15.2319L8.06728 15.2229L7.9407 15.1952L7.82143 15.1592L7.69282 15.109C7.55811 15.049 7.43235 14.9709 7.3208 14.8779L7.29581 14.8568C6.93944 14.5444 6.76267 14.1593 6.75536 13.6798C6.75637 13.3372 6.86812 13.0125 7.07861 12.7406C7.28382 12.4756 7.57457 12.2784 7.89722 12.1851C8.22393 12.0909 8.83328 12.0885 9.12708 12.1806C9.66241 12.3481 10.0424 12.8298 10.0722 13.3792C10.0747 13.4246 10.0729 13.4723 10.0708 13.528C10.0647 13.6892 10.0564 13.9099 10.1513 14.189C10.4197 14.9656 11.1621 15.4893 12.0008 15.4925C12.8373 15.4893 13.5795 14.9653 13.8485 14.1877C13.943 13.9101 13.9347 13.6894 13.9286 13.5275C13.9265 13.4723 13.9247 13.4246 13.9272 13.3795C13.957 12.83 14.337 12.3481 14.8723 12.1808C15.1662 12.0888 15.7753 12.0911 16.102 12.1854C16.4249 12.2788 16.7158 12.476 16.9208 12.741C17.1313 13.0129 17.243 13.3376 17.244 13.6802C17.2367 14.1597 17.06 14.5448 16.7034 14.8574L16.6806 14.8767C16.5673 14.9711 16.4413 15.0494 16.3066 15.1094L16.1782 15.1596L16.0589 15.1956L15.9553 15.2191L15.8732 15.2323C15.8183 15.2349 15.7558 15.2361 15.6899 15.2373H15.6857C15.2919 15.2443 14.7529 15.2536 14.3394 15.605L14.3252 15.6172C14.3041 15.6349 14.2779 15.657 14.2486 15.6839C13.9359 15.9742 13.734 16.3465 13.6634 16.7535H13.6289V19H17.4807V17.3501C17.4878 17.2782 17.4931 17.2063 17.4978 17.1423C17.5039 17.0596 17.5102 16.9742 17.5196 16.8858C17.5435 16.662 17.6081 16.4495 17.7014 16.2871C17.8666 15.9999 18.1317 15.7833 18.4483 15.6771L18.5166 15.6519C18.6374 15.6094 18.7427 15.5843 18.8676 15.5682L18.9 15.5646C19.3701 15.5224 19.8612 15.4456 20.2684 15.1751C20.873 14.7735 20.9998 14.1263 20.9998 13.6541C20.9998 12.5583 20.1794 11.822 18.9583 11.822C18.7967 11.822 18.6377 11.7977 18.4856 11.7501L18.4666 11.7445C18.4497 11.7397 18.4317 11.7341 18.4127 11.7278C18.3664 11.7122 18.3173 11.6901 18.2609 11.6601L18.2441 11.6511C18.0432 11.5481 17.8639 11.3999 17.726 11.2222C17.3054 10.6803 17.3066 9.92431 17.7293 9.38405C17.9009 9.16451 18.1297 8.99479 18.3908 8.89379V8.89299Z" fill="black"/>
</svg>
