<svg width="1042" height="363" viewBox="0 0 1042 363" fill="none" xmlns="http://www.w3.org/2000/svg">
<path d="M125 181.087L195.276 111.283L216.358 131.935L167.165 181.087L230 243.87L280.02 194.717L300.689 215.783L230 286L125 181.087Z" fill="#FBBF24"/>
<path d="M230 117.891L209.331 97.6522L230 77L250.669 97.6522L230 117.891Z" fill="#FBBF24"/>
<path d="M264.311 111.283L242.815 131.935L314.331 202.152L335 181.087L264.311 111.283Z" fill="#FBBF24"/>
<path d="M396.136 229L372.584 134.28H392.296L409.064 203.016L426.6 134.28H446.696L464.232 202.888L480.872 134.28H500.712L477.032 229H451.944L436.584 168.712L421.352 229H396.136ZM498.09 229L530.346 134.28H556.586L588.842 229H568.106L562.09 210.44H524.97L518.826 229H498.09ZM530.474 193.288H556.586L543.53 153.736L530.474 193.288ZM601.329 229V134.28H621.041V211.848H667.377V229H601.329ZM683.579 229V134.28H703.291V211.848H749.627V229H683.579ZM765.829 229V134.28H831.109V151.432H785.541V172.68H825.221V189.192H785.541V211.848H831.749V229H765.829ZM873.298 229V151.432H844.242V134.28H922.066V151.432H893.01V229H873.298Z" fill="#FBBF24"/>
</svg>
